# xmcd CD database file
#
# Track frame offsets:
#	150
#	13873
#	33949
#	54052
#	67199
#	80937
#	90476
#	107091
#	117213
#	130051
#	145201
#	158089
#
# Disc length: 2242 seconds
#
# Revision: 0
# Processed by: cddbd v1.5.2PL0 Copyright (c) Steve Scherf et al.
# Submitted via: CDex 1.70beta2
#
DISCID=9b08c00c
DTITLE=Swing Deluxe - Cabaret Deluxe
DYEAR=2013
DGENRE=Jazz
TTITLE0=It don't mean a thing (if it ain't got that swing)
TTITLE1=Csardas
TTITLE2=Night and day
TTITLE3=Sway
TTITLE4=Bubamara
TTITLE5=Que reste-t-il de nos amours ?
TTITLE6=Deux guitares
TTITLE7=Just a gigolo - I ain't got nobody
TTITLE8=Fly me to the moon
TTITLE9=Misirlou
TTITLE10=C'est si bon
TTITLE11=Kalinka
EXTD=YEAR: 2013
EXTT0=
EXTT1=
EXTT2=
EXTT3=
EXTT4=
EXTT5=
EXTT6=
EXTT7=
EXTT8=
EXTT9=
EXTT10=
EXTT11=
PLAYORDER=
